<svg width="58" height="58" viewBox="0 0 58 58" fill="none" xmlns="http://www.w3.org/2000/svg">
<path fill-rule="evenodd" clip-rule="evenodd" d="M28.7229 57.25C27.6165 56.7241 26.5156 56.1865 25.4029 55.6742C17.4524 52.0137 9.50001 48.3572 1.54562 44.705C1.13723 44.5175 0.798511 44.3085 0.806789 43.7941C0.814678 43.3033 1.15323 43.1049 1.53596 42.9295C6.12279 40.826 10.7085 38.7199 15.2942 36.6139C15.3937 36.5682 15.4902 36.5155 15.6905 36.4146C15.4538 36.2963 15.29 36.2087 15.1213 36.131C10.6535 34.0758 6.18512 32.0219 1.71701 29.9673C1.5669 29.8983 1.37357 29.8631 1.27823 29.7478C1.0924 29.5232 0.842289 29.2531 0.841789 29.0013C0.841234 28.7497 1.0529 28.3708 1.27501 28.2651C3.66068 27.1295 6.06418 26.0311 8.46968 24.9377C8.93535 24.7261 9.36235 24.9216 9.55907 25.3691C9.75785 25.8211 9.62112 26.2286 9.12735 26.4606C7.53368 27.2099 5.92985 27.9373 4.33079 28.6749C4.13873 28.7636 3.95218 28.864 3.68907 28.9961C3.90923 29.1112 4.04562 29.1904 4.18829 29.256C12.3383 33.0017 20.4878 36.7487 28.6453 40.4783C28.87 40.5811 29.2228 40.5852 29.4462 40.483C37.623 36.7426 45.7915 32.9841 53.9606 29.2271C54.0856 29.1696 54.205 29.0998 54.4167 28.9887C53.7202 28.6647 53.1129 28.3796 52.5034 28.099C48.603 26.3041 44.7005 24.514 40.8047 22.7091C40.4718 22.5549 40.2023 22.5702 39.8785 22.7204C36.5498 24.2644 33.2108 25.7861 29.8871 27.3404C29.3063 27.6121 28.8171 27.6249 28.225 27.3471C24.8862 25.7806 21.5277 24.2561 18.181 22.7066C17.8737 22.5642 17.6193 22.5512 17.3071 22.7008C16.149 23.2558 14.9792 23.7864 13.8106 24.3193C13.196 24.5995 12.7754 24.49 12.5403 24.0071C12.2952 23.5038 12.4896 23.0913 13.116 22.7998C13.9145 22.4282 14.7152 22.0611 15.5137 21.6894C15.542 21.6763 15.5569 21.6348 15.6181 21.5531C15.2056 21.3556 14.8064 21.1577 14.4017 20.9718C10.0996 18.9958 5.79718 17.0204 1.49279 15.0494C1.09901 14.8691 0.794067 14.642 0.807178 14.1571C0.819456 13.7004 1.1154 13.4934 1.49029 13.3217C8.26335 10.219 15.0351 7.11334 21.8023 3.99767C22.2123 3.80889 22.564 3.84306 22.9556 4.02467C24.8026 4.88173 26.6609 5.71439 28.5036 6.58056C28.8705 6.75306 29.1666 6.75084 29.5285 6.57789C30.8798 5.93212 32.245 5.31578 33.7002 4.64456C32.683 4.17423 31.7044 3.82751 30.8392 3.29617C29.6187 2.54662 28.4898 2.45856 27.3307 3.34539C27.2592 3.40006 27.1682 3.43001 27.085 3.46862C26.4863 3.74589 26.0703 3.63173 25.832 3.12567C25.6043 2.64217 25.7662 2.25789 26.3336 1.97384C27.0066 1.63684 27.6858 1.31239 28.3598 0.977283C28.4871 0.914005 28.6021 0.826394 28.7228 0.750061C28.9436 0.750061 29.1642 0.750061 29.385 0.750061C29.5047 0.824561 29.6181 0.913117 29.7452 0.971561C37.4236 4.50439 45.1046 8.03184 52.7815 11.5679C54.2598 12.2489 55.7233 12.9626 57.1936 13.6612C57.1936 13.9922 57.1936 14.3233 57.1936 14.6543C56.9627 14.799 56.7446 14.971 56.4992 15.0842C52.0901 17.1173 47.6776 19.1432 43.2662 21.1714C42.9994 21.2941 42.7358 21.4238 42.3742 21.5964C43.8234 22.2642 45.1528 22.8749 46.4805 23.4891C50.0519 25.1413 53.6226 26.7951 57.1936 28.4482C57.1936 28.8161 57.1936 29.1839 57.1936 29.5517C56.8856 29.7042 56.5811 29.8641 56.269 30.0078C51.8421 32.047 47.4142 34.0839 42.9867 36.1219C42.8115 36.2025 42.6386 36.2882 42.39 36.4074C42.644 36.5333 42.8023 36.6168 42.9646 36.6913C47.3104 38.6881 51.6577 40.6814 56.0006 42.6844C56.4123 42.8743 56.7966 43.1238 57.1936 43.3457C57.1936 43.6767 57.1936 44.0078 57.1936 44.3388C56.8562 44.517 56.5262 44.7112 56.1804 44.8708C52.9335 46.3687 49.6841 47.8612 46.4351 49.3544C44.1855 50.3881 41.9369 51.4238 39.6844 52.4511C39.0236 52.7524 38.4402 52.4544 38.3811 51.7954C38.3344 51.2752 38.6935 51.0614 39.0982 50.8757C44.0001 48.6265 48.9003 46.3738 53.8004 44.1206C53.9865 44.0351 54.1669 43.9373 54.4012 43.8195C54.259 43.7416 54.183 43.6937 54.1021 43.6565C49.6194 41.5942 45.138 39.5291 40.6474 37.4843C40.4561 37.3972 40.1478 37.4307 39.9463 37.5226C36.5427 39.0743 33.1446 40.6382 29.7535 42.2169C29.2646 42.4445 28.8458 42.4512 28.348 42.219C24.9731 40.6448 21.5885 39.0913 18.1962 37.5552C17.9515 37.4445 17.5743 37.4226 17.3363 37.5306C13.0948 39.4547 8.86501 41.4047 4.63362 43.351C4.32412 43.4934 4.02112 43.6497 3.67729 43.818C3.81796 43.894 3.89623 43.942 3.97912 43.9802C12.2268 47.7716 20.4739 51.5644 28.7284 55.3408C28.9214 55.4291 29.2286 55.402 29.4313 55.3126C30.7572 54.7286 32.0661 54.1061 33.3868 53.5102C33.8707 53.292 34.2902 53.4437 34.5036 53.8717C34.727 54.3199 34.5706 54.7635 34.0908 55.0218C33.9295 55.1087 33.7587 55.1777 33.5929 55.2562C32.1901 55.9206 30.7876 56.5853 29.3849 57.25C29.1643 57.25 28.9436 57.25 28.7229 57.25ZM23.9717 17.3817C24.079 17.4409 24.1261 17.4711 24.1765 17.4943C25.7235 18.2073 27.2676 18.9266 28.8228 19.6211C28.9731 19.6882 29.2135 19.649 29.376 19.5774C30.3485 19.1493 31.3107 18.6977 32.2757 18.2527C32.8844 17.972 33.4921 17.6891 34.1705 17.3744C32.506 16.6007 30.93 15.8634 29.3472 15.1413C29.2141 15.0806 29.0091 15.0662 28.8801 15.1245C27.2673 15.8539 25.6625 16.6007 23.9717 17.3817ZM27.0887 14.0979C25.427 13.3249 23.9038 12.6076 22.3689 11.9161C22.22 11.8491 21.9788 11.8972 21.8143 11.9692C20.8583 12.3872 19.9118 12.8269 18.9636 13.2624C18.3312 13.5529 17.7012 13.8487 16.9774 14.1853C18.6415 14.953 20.2008 15.6749 21.7642 16.3878C21.8536 16.4286 21.9923 16.4349 22.08 16.3951C23.7087 15.655 25.3331 14.9054 27.0887 14.0979ZM41.1101 14.1923C39.803 13.5903 38.5704 13.1055 37.4222 12.4683C36.4499 11.9288 35.6152 11.8839 34.6302 12.4451C33.5445 13.0637 32.3657 13.5189 31.2455 14.037C31.2567 14.1186 31.2536 14.1475 31.2622 14.1516C32.8354 14.8911 34.4078 15.6323 35.9868 16.3592C36.099 16.4108 36.2784 16.398 36.3951 16.3454C37.9284 15.6541 39.4561 14.9502 41.1101 14.1923ZM24.1487 10.882C25.8169 11.6563 27.3568 12.3808 28.9096 13.0767C29.0581 13.1432 29.3036 13.0712 29.4745 12.9962C30.3813 12.5979 31.2797 12.1801 32.1792 11.765C32.7468 11.5031 33.3111 11.2341 33.9801 10.9198C32.3031 10.1506 30.7407 9.42917 29.171 8.72439C29.061 8.67506 28.8802 8.71628 28.7578 8.77167C27.2563 9.45173 25.7596 10.1423 24.1487 10.882ZM10.3742 11.0971C10.5006 11.1821 10.5521 11.2277 10.612 11.2553C11.974 11.8847 13.3329 12.5213 14.7049 13.1281C14.872 13.2019 15.1341 13.168 15.3125 13.0914C16.1366 12.738 16.9471 12.353 17.7615 11.977C18.5213 11.6262 19.2798 11.2723 20.1352 10.8752C18.9966 10.3463 17.9158 9.93751 16.9328 9.36173C15.9408 8.78062 15.0877 8.80234 14.092 9.35495C12.9191 10.0059 11.6608 10.5032 10.3742 11.0971ZM38.016 10.9244C39.0524 11.3993 39.9666 11.8241 40.886 12.2376C41.6365 12.5752 42.3943 13.1595 43.1467 13.1561C43.9017 13.1526 44.6562 12.5622 45.4069 12.2201C46.1646 11.8747 46.9173 11.5183 47.7823 11.1154C46.0682 10.3253 44.4751 9.58784 42.8769 8.86134C42.7752 8.81512 42.6165 8.81345 42.5151 8.85934C41.0495 9.52373 39.5892 10.1998 38.016 10.9244ZM40.8229 20.4516C39.592 19.8821 38.4338 19.4138 37.3441 18.82C36.5288 18.3756 35.8475 18.3691 35.0212 18.8123C33.7684 19.4846 32.443 20.0215 31.059 20.6568C32.6075 21.3707 34.0622 22.0457 35.5233 22.7061C35.6372 22.7576 35.8166 22.75 35.9327 22.6973C37.5319 21.972 39.1252 21.2339 40.8229 20.4516ZM27.0474 20.6599C25.3336 19.8742 23.7202 19.1316 22.1018 18.4001C22.0025 18.3552 21.8462 18.3602 21.7454 18.4059C20.283 19.0696 18.8255 19.7443 17.28 20.4563C18.9798 21.2376 20.5925 21.9808 22.2089 22.716C22.2958 22.7556 22.4299 22.7632 22.5146 22.725C23.9957 22.057 25.4726 21.3796 27.0474 20.6599ZM31.0326 7.72489C32.3982 8.35012 33.6638 8.85401 34.8525 9.49962C35.6863 9.95251 36.3727 9.92167 37.1886 9.48051C38.287 8.88673 39.4515 8.41539 40.6782 7.84973C39.4185 7.26845 38.2217 6.79173 37.1013 6.17612C36.1494 5.65301 35.3285 5.59028 34.3591 6.15639C33.3399 6.75156 32.2203 7.17473 31.0326 7.72489ZM10.303 17.2482C11.5988 17.8457 12.8283 18.3358 13.9798 18.9681C14.8872 19.4662 15.6563 19.4809 16.5635 18.9682C17.6065 18.3787 18.7341 17.9387 19.9241 17.3878C18.2607 16.6228 16.7047 15.9029 15.1422 15.1975C15.031 15.1473 14.854 15.1632 14.7381 15.2157C13.2878 15.8715 11.8432 16.5398 10.303 17.2482ZM47.7919 17.2505C46.2392 16.5382 44.7762 15.864 43.3081 15.2008C43.2079 15.1556 43.0518 15.1542 42.9521 15.1994C41.3917 15.9053 39.8363 16.6223 38.1818 17.3817C39.7365 18.1006 41.1948 18.7796 42.6603 19.4431C42.7704 19.4928 42.948 19.4691 43.0654 19.4159C44.6005 18.7208 46.1305 18.0141 47.7919 17.2505ZM17.6495 7.75806C17.6925 7.84228 17.7001 7.88823 17.7239 7.89934C19.1206 8.5499 20.5146 9.20695 21.9225 9.83278C22.0875 9.90612 22.3512 9.85495 22.5327 9.77678C23.2908 9.44995 24.0348 9.09045 24.7843 8.74367C25.4866 8.41873 26.1893 8.09478 26.9982 7.72134C25.9331 7.23256 24.936 6.88078 24.052 6.34312C22.8802 5.63051 21.8397 5.63612 20.6655 6.34656C19.7217 6.91751 18.6604 7.29434 17.6495 7.75806ZM54.4619 14.1826C52.9323 13.4811 51.5223 12.8199 50.0956 12.1971C49.8996 12.1114 49.5925 12.1526 49.3842 12.2437C48.1755 12.7722 46.9806 13.3322 45.7823 13.8843C45.5988 13.9688 45.4219 14.0678 45.1621 14.2011C46.7192 14.9143 48.1818 15.5866 49.6486 16.2497C49.7345 16.2886 49.869 16.2872 49.9552 16.2481C51.421 15.5827 52.8826 14.9086 54.4619 14.1826ZM33.6175 23.7632C33.5285 23.6799 33.496 23.6307 33.4505 23.6096C32.069 22.9712 30.6902 22.3265 29.2983 21.7112C29.1318 21.6376 28.8689 21.6717 28.6921 21.7498C27.5519 22.2533 26.4228 22.7819 25.2911 23.3045C25.0177 23.4306 24.748 23.5649 24.3962 23.734C25.916 24.4289 27.3293 25.0829 28.7522 25.7152C28.9133 25.7868 29.158 25.8017 29.3144 25.7319C30.7373 25.098 32.1491 24.4393 33.6175 23.7632ZM3.62818 14.1814C4.77618 14.7087 5.85379 15.1278 6.85457 15.6849C7.82818 16.227 8.70418 16.3768 9.6784 15.7065C10.1536 15.3795 10.7347 15.207 11.2662 14.9611C11.7932 14.7173 12.3181 14.4693 12.936 14.18C11.3996 13.4708 9.96357 12.8003 8.51723 12.153C8.37757 12.0905 8.15329 12.1257 8.00285 12.1928C6.58285 12.8266 5.17046 13.4773 3.62818 14.1814Z" fill="black"/>
</svg>
