<svg width="60" height="60" viewBox="0 0 60 60" fill="none" xmlns="http://www.w3.org/2000/svg">
<g clip-path="url(#clip0_623_399)">
<path fill-rule="evenodd" clip-rule="evenodd" d="M28.5004 2.33127C29.6346 2.94077 30.0675 3.76527 29.6826 4.68916C29.5541 4.99755 29.323 5.28172 29.0841 5.52266C27.0015 7.62305 24.906 9.711 22.8154 11.8036C22.6781 11.9408 22.5483 12.0858 22.3179 12.3303C22.6439 12.3303 22.8526 12.3303 23.0614 12.3303C32.0631 12.3303 41.0649 12.3238 50.0667 12.3439C50.7099 12.3453 51.3994 12.4284 51.9871 12.6692C53.6019 13.3308 54.3816 14.6215 54.4248 16.3535C54.4447 17.1564 54.4398 17.9603 54.426 18.7636C54.4047 20.0142 53.6847 20.7144 52.4244 20.7188C50.982 20.7239 49.5395 20.7201 48.097 20.7201C47.9009 20.7201 47.7046 20.7201 47.4456 20.7201C47.4456 21.0037 47.4456 21.2352 47.4456 21.4667C47.4456 32.2761 47.4461 43.0856 47.4454 53.8951C47.4452 56.5628 45.8141 58.2006 43.1541 58.2009C32.9107 58.202 22.6673 58.202 12.4239 58.2009C9.76508 58.2006 8.18708 56.5588 8.11136 53.8971C8.05641 51.9664 8.63891 51.0515 10.8049 51.1982C11.6358 51.2544 12.4736 51.2073 13.3366 51.2073C13.3366 41.2416 13.3366 31.3351 13.3366 21.3182C13.1458 21.4958 13.0054 21.6186 12.8736 21.7502C10.3812 24.2416 7.88619 26.7303 5.4013 29.229C4.91552 29.7174 4.36997 29.9618 3.6788 29.8368C2.99985 29.714 2.43758 29.187 2.31535 28.5109C2.26058 28.208 2.24852 27.8941 2.24847 27.5851C2.24497 19.9528 2.25774 12.3204 2.23197 4.68811C2.22841 3.61827 2.51602 2.80588 3.51613 2.33116C11.8442 2.33127 20.1723 2.33127 28.5004 2.33127ZM47.9626 13.2579C47.6656 13.2417 47.5065 13.2255 47.3475 13.2255C38.8564 13.2261 30.3651 13.2244 21.8739 13.2451C21.5892 13.2458 21.2365 13.4031 21.0312 13.6051C18.8834 15.7179 16.7634 17.8592 14.6232 19.9799C14.3576 20.2431 14.2417 20.5019 14.2421 20.8823C14.2528 30.7796 14.2505 40.6772 14.2505 50.5745C14.2505 50.7693 14.2505 50.9641 14.2505 51.2057C14.509 51.2057 14.7055 51.2057 14.9023 51.2057C18.737 51.2057 22.5719 51.2056 26.4067 51.2059C30.4424 51.2062 34.4781 51.2049 38.5136 51.2086C39.7402 51.2097 40.4383 51.9197 40.4425 53.1521C40.4438 53.5356 40.4376 53.9192 40.4439 54.3025C40.4777 56.3414 42.4797 57.7717 44.4276 57.1509C45.8037 56.7123 46.5647 55.5768 46.5649 53.9488C46.5658 41.5861 46.5742 29.2233 46.5529 16.8607C46.5504 15.4979 46.8186 14.2948 47.9626 13.2579ZM3.22202 26.9139C3.22202 27.3979 3.16547 27.7917 3.24158 28.1578C3.29358 28.408 3.48419 28.7207 3.69858 28.8198C3.91208 28.9184 4.24752 28.8278 4.50108 28.7391C4.67424 28.6786 4.80247 28.4827 4.94435 28.3409C8.97224 24.3122 12.9996 20.2829 17.0266 16.2533C20.8344 12.4434 24.6395 8.63094 28.4528 4.82661C28.7691 4.51094 28.9389 4.16922 28.764 3.75083C28.5958 3.34849 28.2257 3.24205 27.8141 3.24605C27.3212 3.25105 26.8265 3.27188 26.3357 3.23888C25.929 3.21149 25.828 3.38472 25.853 3.74944C25.8742 4.05783 25.8649 4.37055 25.8419 4.67938C25.818 5.00194 25.67 5.30599 25.3076 5.19688C25.1172 5.13966 24.904 4.85033 24.872 4.63988C24.8052 4.19961 24.8517 3.74211 24.8517 3.27349C24.1146 3.27349 23.4488 3.27349 22.7187 3.27349C22.7187 3.71805 22.7202 4.13316 22.7182 4.54822C22.7166 4.88261 22.6533 5.19494 22.2397 5.21161C21.7847 5.22988 21.7176 4.88994 21.7077 4.54177C21.6959 4.12811 21.7049 3.71383 21.7049 3.27272C20.957 3.27272 20.292 3.27272 19.5536 3.27272C19.5536 3.75222 19.5529 4.20333 19.5539 4.65438C19.5545 4.96538 19.452 5.20661 19.1001 5.21266C18.7236 5.21916 18.6016 4.97783 18.6044 4.63744C18.608 4.18749 18.6053 3.73761 18.6053 3.2745C17.8629 3.2745 17.1968 3.2745 16.4607 3.2745C16.4607 3.73838 16.4714 4.17205 16.4571 4.60483C16.4468 4.91605 16.3556 5.2035 15.9733 5.21338C15.5637 5.22394 15.4512 4.93966 15.4442 4.59572C15.4355 4.16327 15.4421 3.73061 15.4421 3.28911C14.688 3.28911 14.0088 3.28911 13.3012 3.28911C13.3012 3.75488 13.2985 4.17405 13.3021 4.59294C13.3049 4.91638 13.2282 5.19605 12.8468 5.21116C12.427 5.22788 12.3422 4.93838 12.3467 4.58811C12.3522 4.15666 12.3481 3.72499 12.3481 3.27838C11.5974 3.27838 10.9327 3.27838 10.1925 3.27838C10.1925 3.74727 10.2054 4.18138 10.1882 4.61427C10.176 4.92244 10.0895 5.21716 9.69969 5.21477C9.29336 5.21222 9.18724 4.93288 9.18697 4.58377C9.18663 4.15205 9.18685 3.72027 9.18685 3.27499C8.44308 3.27499 7.77736 3.27499 7.05119 3.27499C7.05119 3.75838 7.09986 4.21816 7.02958 4.65894C6.99686 4.86388 6.73319 5.03188 6.57413 5.21672C6.40541 5.04216 6.13991 4.89166 6.08958 4.68794C6.00441 4.34238 6.08602 3.95872 6.03274 3.60077C6.01302 3.46766 5.81758 3.26783 5.69135 3.25938C5.14619 3.22233 4.5958 3.22361 4.04947 3.25277C3.63574 3.27494 3.25535 3.48038 3.23697 3.92049C3.19358 4.97061 3.22302 6.02388 3.22302 7.12838C3.68841 7.12838 4.08641 7.12888 4.48441 7.12827C4.85008 7.12766 5.17735 7.23372 5.16652 7.65472C5.15658 8.04233 4.82847 8.13722 4.49413 8.14361C4.08236 8.15144 3.67035 8.14538 3.24741 8.14538C3.24741 8.90855 3.24741 9.57433 3.24741 10.2964C3.69735 10.2964 4.11335 10.3051 4.52869 10.2939C4.88452 10.2843 5.17708 10.3855 5.16719 10.7842C5.1583 11.1446 4.87952 11.2496 4.54658 11.2431C4.11613 11.2347 3.68547 11.2411 3.25002 11.2411C3.25002 11.9903 3.25002 12.6562 3.25002 13.3836C3.66619 13.3836 4.04563 13.3823 4.42502 13.3839C4.79919 13.3855 5.17285 13.4611 5.16452 13.9151C5.15697 14.3332 4.80058 14.407 4.44497 14.4057C4.05013 14.4044 3.65541 14.4054 3.24719 14.4054C3.24719 15.1556 3.24719 15.821 3.24719 16.5444C3.69669 16.5444 4.11247 16.5507 4.52785 16.5426C4.88397 16.5356 5.17185 16.6489 5.16785 17.0415C5.16402 17.4086 4.87869 17.5055 4.55019 17.5016C4.11919 17.4966 3.68808 17.5004 3.21163 17.5004C3.21163 17.8304 3.20597 18.0654 3.21291 18.3002C3.22513 18.717 3.0913 19.2722 3.30591 19.5099C3.50841 19.7344 4.08063 19.6308 4.49097 19.6606C4.8438 19.6861 5.19097 19.7571 5.16591 20.1944C5.14385 20.5813 4.82747 20.6667 4.48452 20.662C4.07308 20.6563 3.66158 20.6607 3.25385 20.6607C3.25385 21.4169 3.25385 22.0824 3.25385 22.7947C3.73069 22.7947 4.1743 22.7444 4.59752 22.8158C4.81019 22.8517 4.98563 23.1087 5.17785 23.2656C5.00097 23.4368 4.84952 23.7017 4.64169 23.7576C4.31691 23.8451 3.94958 23.7606 3.60947 23.8112C3.46558 23.8326 3.23991 24.0051 3.23208 24.1211C3.19313 24.6995 3.21424 25.282 3.21424 25.9494C3.71252 25.9494 4.17019 25.9017 4.6098 25.9702C4.81924 26.0029 5.12286 26.2328 5.15691 26.4156C5.22041 26.7563 4.93735 26.9152 4.59547 26.9143C4.1618 26.913 3.72824 26.9139 3.22202 26.9139ZM40.805 57.3107C40.8353 57.2769 40.8656 57.2429 40.8957 57.209C39.7374 56.1889 39.4975 54.8722 39.5571 53.4303C39.603 52.3261 39.3271 52.0855 38.2191 52.0855C28.9292 52.0854 19.6394 52.0854 10.3495 52.0858C10.1851 52.0858 9.98235 52.0296 9.86452 52.1048C9.5783 52.2872 9.14108 52.5024 9.10213 52.7562C8.93597 53.8381 8.87297 54.9463 9.52752 55.9271C10.222 56.9675 11.2469 57.315 12.4525 57.3143C21.7242 57.3079 30.9959 57.3107 40.2676 57.3107C40.4468 57.3107 40.626 57.3107 40.805 57.3107ZM47.481 19.8009C49.253 19.8009 50.9984 19.8203 52.7431 19.7888C53.2513 19.7796 53.5092 19.4087 53.5101 18.8973C53.5118 17.9493 53.5335 17.0002 53.4952 16.0538C53.4337 14.5295 52.2274 13.3577 50.6675 13.2578C49.1362 13.1597 47.6655 14.1898 47.5107 15.6791C47.3707 17.0259 47.481 18.3989 47.481 19.8009Z" fill="black"/>
<path fill-rule="evenodd" clip-rule="evenodd" d="M54.1423 58.4362C54.0864 58.3985 54.0352 58.3465 53.9735 58.3249C52.4274 57.7863 51.6344 56.673 51.634 55.0164C51.632 48.7741 51.633 42.5318 51.633 36.2894C51.633 34.154 51.6239 32.0182 51.6431 29.883C51.6459 29.5704 51.7246 29.2289 51.8679 28.9522C52.4704 27.7872 53.1164 26.6448 53.7345 25.4876C53.9754 25.0365 54.305 24.7121 54.8346 24.7144C55.3604 24.7167 55.6923 25.028 55.9344 25.4853C56.5481 26.6447 57.1989 27.7848 57.8028 28.9492C57.9468 29.2269 58.032 29.5695 58.0324 29.8825C58.0446 38.2239 58.0359 46.5653 58.0466 54.9066C58.0489 56.7392 57.1679 57.8813 55.4575 58.4362C55.019 58.4362 54.5806 58.4362 54.1423 58.4362ZM52.5734 29.9523C52.5734 36.9974 52.5734 43.9755 52.5734 50.9479C54.1064 50.9479 55.5938 50.9479 57.0751 50.9479C57.0751 43.9274 57.0751 36.9477 57.0751 29.9523C55.557 29.9523 54.0829 29.9523 52.5734 29.9523ZM57.1033 51.9202C55.5486 51.9202 54.062 51.9202 52.5527 51.9202C52.5527 52.4215 52.5527 52.8852 52.5527 53.3592C54.0899 53.3592 55.5928 53.3592 57.1033 53.3592C57.1033 52.8654 57.1033 52.4131 57.1033 51.9202ZM53.0285 28.9143C54.26 28.9143 55.4476 28.9143 56.6351 28.9143C56.6617 28.8778 56.6883 28.8412 56.7149 28.8047C56.1866 28.4117 56.4139 27.3988 55.3269 27.4307C53.5407 27.4832 53.495 27.4699 53.0285 28.9143Z" fill="black"/>
<path fill-rule="evenodd" clip-rule="evenodd" d="M20.1791 31.1755C23.4443 31.1755 26.6657 31.1755 29.9439 31.1755C29.9439 30.9542 29.9439 30.7577 29.9439 30.561C29.9439 28.3698 29.9432 26.1786 29.9452 23.9874C29.9452 23.824 29.9111 23.6294 29.986 23.5055C30.0754 23.3573 30.2677 23.1779 30.4107 23.1821C30.5466 23.186 30.7114 23.3893 30.7968 23.5422C30.8598 23.6549 30.8182 23.8275 30.8182 23.9735C30.819 26.1648 30.8187 28.356 30.8187 30.5472C30.8187 30.7438 30.8187 30.9404 30.8187 31.1762C34.093 31.1762 37.3133 31.1762 40.5875 31.1762C40.5875 30.9636 40.5875 30.7839 40.5875 30.6045C40.5875 27.2812 40.5887 23.9579 40.5868 20.6345C40.5858 19.2954 40.0732 18.7835 38.7384 18.7828C36.3098 18.7816 33.8812 18.7825 31.4526 18.7825C31.2722 18.7825 31.0916 18.7825 30.8185 18.7825C30.8185 19.3587 30.8173 19.8983 30.8189 20.4379C30.8198 20.7419 30.8207 21.0669 30.4057 21.0706C29.9686 21.0745 29.9457 20.7377 29.9446 20.4117C29.9427 19.8879 29.9441 19.364 29.9441 18.8125C29.7197 18.8002 29.5598 18.7838 29.3999 18.7836C26.9166 18.782 24.4332 18.7799 21.9499 18.7837C20.7429 18.7856 20.1848 19.3534 20.181 20.5695C20.1785 21.3729 20.1738 22.1764 20.1832 22.9798C20.187 23.2962 20.079 23.5871 19.7563 23.5313C19.5788 23.5005 19.334 23.1767 19.3241 22.975C19.2787 22.046 19.2758 21.1123 19.313 20.1826C19.3672 18.8325 20.3956 17.912 21.8275 17.9098C26.0455 17.9035 30.2636 17.9075 34.4816 17.9075C35.9606 17.9075 37.4397 17.9033 38.9188 17.9088C40.4951 17.9145 41.4559 18.8505 41.4581 20.4188C41.4663 26.0063 41.4616 31.5938 41.4615 37.1813C41.4615 37.2727 41.4912 37.3853 41.4492 37.4509C41.3418 37.6188 41.2018 37.7658 41.0749 37.921C40.916 37.7748 40.6486 37.647 40.6199 37.4785C40.5498 37.07 40.5885 36.6425 40.588 36.2228C40.5867 34.8744 40.5875 33.5262 40.5875 32.1336C36.2466 32.1336 31.9497 32.1336 27.5872 32.1336C27.5766 32.3444 27.5568 32.5544 27.5567 32.7645C27.5545 35.2843 27.5555 37.8042 27.5546 40.324C27.5546 40.4881 27.5924 40.6743 27.5282 40.8106C27.4533 40.9699 27.2685 41.2074 27.1623 41.1923C26.9953 41.1685 26.7669 40.987 26.7215 40.8276C26.6441 40.5559 26.6837 40.2497 26.6828 39.9579C26.6803 39.0676 26.682 38.1773 26.682 37.2218C26.1091 37.2218 25.6018 37.2204 25.0946 37.2223C24.7753 37.2234 24.4413 37.1464 24.4998 36.7762C24.5265 36.6079 24.8667 36.3964 25.0847 36.3701C25.5847 36.3097 26.0969 36.3509 26.6425 36.3509C26.6425 34.9181 26.6425 33.5426 26.6425 32.1277C24.4999 32.1277 22.3751 32.1277 20.2154 32.1277C20.2154 33.5254 20.2154 34.9018 20.2154 36.3492C20.8381 36.3492 21.4351 36.3467 22.0321 36.3509C22.1953 36.352 22.3907 36.3227 22.5135 36.3996C22.6577 36.49 22.8531 36.7167 22.8208 36.8203C22.7708 36.9807 22.5558 37.1829 22.3948 37.1982C21.8698 37.2475 21.3375 37.2179 20.8081 37.2235C20.6123 37.2256 20.4166 37.2408 20.1804 37.252C20.1804 38.3036 20.1802 39.3054 20.1805 40.3072C20.1809 41.5489 20.1713 42.7907 20.1858 44.0322C20.1979 45.0622 20.7597 45.6273 21.7808 45.6348C23.3848 45.6464 24.9889 45.6379 26.682 45.6379C26.682 45.0975 26.6791 44.5953 26.6837 44.0932C26.6851 43.9299 26.6534 43.7321 26.732 43.6125C26.8243 43.4719 27.0533 43.2895 27.163 43.3229C27.3202 43.3706 27.5202 43.5903 27.5317 43.7489C27.5749 44.3457 27.5491 44.9475 27.5491 45.6052C27.7883 45.618 27.98 45.6372 28.1716 45.6373C31.7141 45.639 35.2566 45.6401 38.799 45.6378C40.1035 45.6369 40.5081 45.1517 40.6106 43.8566C40.6903 42.8508 40.3531 42.1995 39.5478 41.6272C38.6431 40.9842 37.8313 40.2112 36.971 39.5046C36.7097 39.2901 36.5647 39.0507 36.8048 38.7638C37.0387 38.4843 37.2916 38.6278 37.5197 38.8187C38.7375 39.8376 39.963 40.8475 41.1665 41.8831C41.322 42.0168 41.4361 42.277 41.4476 42.4852C41.4812 43.104 41.4762 43.7271 41.4457 44.3465C41.3862 45.5514 40.4606 46.482 39.253 46.4986C37.1718 46.5272 35.09 46.5123 33.0084 46.5129C29.3382 46.5141 25.667 46.4672 21.998 46.5324C20.1221 46.5657 19.2746 45.2199 19.2863 43.8289C19.3289 38.7895 19.303 33.7495 19.3031 28.7097C19.3031 28.582 19.2553 28.4196 19.3157 28.3335C19.4436 28.1513 19.6283 28.0089 19.7898 27.8501C19.9195 28.0164 20.1547 28.1785 20.1615 28.3498C20.1985 29.2773 20.1791 30.207 20.1791 31.1755Z" fill="black"/>
<path fill-rule="evenodd" clip-rule="evenodd" d="M7.32001 13.4068C7.32001 11.6549 7.31768 9.90294 7.32123 8.15105C7.32251 7.55049 7.49451 7.36783 8.10306 7.36694C11.5886 7.36122 15.0743 7.35733 18.5598 7.37822C18.8108 7.37977 19.1951 7.52599 19.2723 7.70872C19.3468 7.88477 19.168 8.25888 18.9908 8.43738C15.4553 11.999 11.9066 15.5474 8.3474 19.0854C8.17901 19.2528 7.79734 19.4424 7.67629 19.3661C7.48551 19.2457 7.33879 18.9096 7.33484 18.6623C7.30684 16.9108 7.31995 15.1587 7.32001 13.4068ZM8.29362 8.35672C8.29362 11.5175 8.29362 14.6187 8.29362 17.5712C11.3476 14.5171 14.454 11.4105 17.5078 8.35672C14.5297 8.35672 11.4335 8.35672 8.29362 8.35672Z" fill="black"/>
</g>
<defs>
<clipPath id="clip0_623_399">
<rect width="60" height="60" fill="white"/>
</clipPath>
</defs>
</svg>
