<svg width="58" height="40" viewBox="0 0 58 40" fill="none" xmlns="http://www.w3.org/2000/svg">
<path fill-rule="evenodd" clip-rule="evenodd" d="M0.75 4.55201C1.10628 4.11568 1.526 4.07656 2.0675 4.21034C5.80106 5.13229 9.51744 6.15279 13.2898 6.88001C16.3794 7.47551 19.5322 7.7749 22.6688 8.08634C26.5884 8.47545 30.5253 8.42062 34.4523 8.17912C40.2524 7.82245 45.9653 6.89179 51.5814 5.38684C53.0325 4.99795 54.4896 4.62979 55.9323 4.21184C56.4711 4.05579 56.8933 4.1169 57.2499 4.55206C57.2499 14.8516 57.2499 25.151 57.2499 35.4505C56.8741 35.9042 56.4293 35.9195 55.8761 35.7826C52.1603 34.8635 48.4617 33.8471 44.7076 33.1199C41.6546 32.5285 38.5387 32.2287 35.4386 31.9216C31.5195 31.5333 27.5786 31.5317 23.6572 31.8352C20.4241 32.0855 17.1992 32.5044 13.9892 32.9741C9.958 33.564 6.04428 34.6993 2.12372 35.7803C1.5725 35.9323 1.12572 35.9051 0.75 35.4505C0.75 25.151 0.75 14.8515 0.75 4.55201ZM55.6946 5.86484C37.8812 11.2621 20.1047 11.256 2.30928 5.86523C2.30928 12.6643 2.30928 19.3342 2.30928 26.0468C2.52383 25.9747 2.71378 25.919 2.89789 25.8481C9.04028 23.4807 15.1843 21.1173 21.3201 18.7326C21.7914 18.5493 22.1953 18.5912 22.6463 18.7372C26.7951 20.081 30.9455 21.4194 35.1021 22.7384C35.3476 22.8163 35.6827 22.7881 35.9212 22.6839C38.3753 21.611 40.8225 20.522 43.2597 19.4113C43.6847 19.2176 44.0501 19.2243 44.4686 19.3884C47.5062 20.5788 50.5482 21.758 53.5897 22.9383C54.2778 23.2055 54.9696 23.4628 55.6947 23.738C55.6946 17.7735 55.6946 11.8923 55.6946 5.86484ZM2.2935 34.1435C20.1334 28.7405 37.8994 28.7453 55.7071 34.14C55.7071 33.2544 55.6736 32.4823 55.7187 31.7149C55.7494 31.1917 55.5868 30.9638 55.0672 30.7977C44.1683 27.3141 33.2773 23.8057 22.3796 20.3186C22.1127 20.2331 21.7583 20.261 21.4913 20.3608C19.4995 21.1056 17.5196 21.8823 15.5356 22.648C11.2593 24.2983 6.98194 25.9456 2.71 27.6072C2.54444 27.6716 2.31294 27.8688 2.31117 28.0066C2.28539 30.0088 2.2935 32.0115 2.2935 34.1435ZM37.747 23.5986C43.7865 25.54 49.7204 27.4475 55.7067 29.3718C55.7067 28.0978 55.7177 26.9042 55.6919 25.7113C55.6888 25.5718 55.5103 25.366 55.3667 25.3098C51.6444 23.8545 47.9164 22.4137 44.1867 20.9777C44.0449 20.9231 43.8478 20.8799 43.7221 20.9352C41.7608 21.7975 39.8069 22.6767 37.747 23.5986Z" fill="black"/>
<path fill-rule="evenodd" clip-rule="evenodd" d="M38.1332 37.9703C31.9917 37.3485 25.9867 37.3421 19.8832 37.9707C20.0804 38.1984 20.2169 38.3402 20.3353 38.4959C20.6187 38.8685 20.6356 39.2561 20.2881 39.5835C19.9615 39.8912 19.5612 39.887 19.2434 39.5846C18.6579 39.0277 18.0764 38.4588 17.5657 37.8356C17.4071 37.642 17.406 37.2394 17.4673 36.9623C17.5895 36.4101 17.7962 35.8754 17.9844 35.3393C18.1667 34.8196 18.5677 34.5893 18.9925 34.7367C19.4341 34.8901 19.6162 35.2878 19.4776 35.8161C19.4268 36.0098 19.3575 36.1987 19.2755 36.4562C25.7652 35.7464 32.2142 35.7356 38.7089 36.4598C38.624 36.1566 38.5412 35.9189 38.4924 35.6744C38.3992 35.2086 38.5821 34.8638 39.036 34.7309C39.4721 34.6031 39.8041 34.8079 39.9569 35.2194C40.1864 35.8374 40.4255 36.4601 40.5575 37.1021C40.6132 37.3734 40.4852 37.7622 40.3037 37.9866C39.8777 38.5131 39.3746 38.9783 38.8921 39.4576C38.4769 39.87 38.0152 39.9032 37.6797 39.5656C37.3567 39.2403 37.3827 38.8121 37.7527 38.3891C37.8467 38.2816 37.9447 38.1775 38.1332 37.9703Z" fill="black"/>
<path fill-rule="evenodd" clip-rule="evenodd" d="M19.29 3.54184C19.3795 3.86606 19.4659 4.10917 19.5114 4.35978C19.5915 4.80156 19.4111 5.12961 18.9839 5.26406C18.5487 5.40095 18.2085 5.21311 18.0539 4.80122C17.8157 4.16739 17.58 3.52545 17.4369 2.86667C17.3817 2.61284 17.5087 2.24306 17.6816 2.03122C18.0982 1.52045 18.5884 1.06911 19.0537 0.598559C19.5033 0.143781 19.9505 0.0833365 20.3043 0.420281C20.6585 0.757559 20.6178 1.20261 20.1889 1.67895C20.1166 1.75906 20.0435 1.83845 19.9662 1.92317C21.5406 2.63795 35.1211 2.68595 38.0784 1.97989C37.9189 1.79856 37.7679 1.65017 37.6444 1.48161C37.3835 1.12539 37.3711 0.753225 37.6917 0.435225C38.0126 0.11717 38.4132 0.103503 38.7332 0.402448C39.3235 0.953948 39.9032 1.52467 40.4171 2.1455C40.5789 2.34111 40.5992 2.74095 40.5389 3.01523C40.4133 3.58534 40.2012 4.13773 40.0043 4.69023C39.8319 5.17367 39.4314 5.40045 39.0281 5.27467C38.5842 5.13617 38.383 4.72767 38.5139 4.20911C38.563 4.01467 38.6352 3.82611 38.7257 3.54539C32.2399 4.264 25.7982 4.27645 19.29 3.54184Z" fill="black"/>
<path fill-rule="evenodd" clip-rule="evenodd" d="M33.7704 19.4113C31.9764 19.423 30.4592 17.9093 30.4713 16.1201C30.4833 14.3447 31.9793 12.8585 33.7482 12.8644C35.525 12.8703 37.01 14.3517 37.019 16.1272C37.0279 17.8978 35.5422 19.3997 33.7704 19.4113ZM35.425 16.1293C35.4222 15.16 34.6907 14.4477 33.7084 14.4579C32.773 14.4676 32.0577 15.2025 32.0639 16.1473C32.0702 17.0981 32.7808 17.8131 33.7261 17.8198C34.7018 17.8266 35.4278 17.1042 35.425 16.1293Z" fill="black"/>
</svg>
